<svg width="266" height="74" viewBox="0 0 266 74" fill="none" xmlns="http://www.w3.org/2000/svg">
<path d="M18.16 65.96C14.5867 64.7867 11.44 62.92 8.72 60.36C6.05333 57.8 4.05333 54.76 2.72 51.24C1.70667 48.4133 1.2 45.5333 1.2 42.6C1.2 38.7067 2.02667 34.9733 3.68 31.4C5.38667 27.7733 7.73333 24.6267 10.72 21.96C13.76 19.24 17.1733 17.24 20.96 15.96C24.16 14.8933 26.9867 14.36 29.44 14.36C34.3467 14.36 36.8 16.6267 36.8 21.16C36.8 23.3467 36.16 25.1333 34.88 26.52C33.6533 27.9067 32.16 29 30.4 29.8C28.6933 30.5467 26.4533 31.3467 23.68 32.2L21.28 32.92C19.68 34.4133 18.3733 36.0667 17.36 37.88C16.3467 39.64 15.84 41.3467 15.84 43C15.84 45.88 17.4933 48.0133 20.8 49.4C21.6 49.7733 22.5333 50.0667 23.6 50.28C24.72 50.4933 25.7867 50.68 26.8 50.84C28.72 51.1067 30.24 51.4267 31.36 51.8C32.48 52.12 33.4133 52.7333 34.16 53.64C34.9067 54.5467 35.28 55.8533 35.28 57.56C35.28 60.8667 34.2933 63.2667 32.32 64.76C30.3467 66.2533 27.84 67 24.8 67C22.6133 67 20.4 66.6533 18.16 65.96ZM60.5288 64.12C58.0754 66.04 55.4621 67 52.6888 67C49.9154 67 47.3821 66.0933 45.0888 64.28C42.8488 62.4133 41.2488 59.9333 40.2888 56.84C39.5421 54.28 39.1688 51.6133 39.1688 48.84C39.1688 45.48 39.7288 42.3067 40.8488 39.32C42.0221 36.3333 43.7821 33.8533 46.1288 31.88C47.3021 30.8667 48.7154 30.0933 50.3688 29.56C52.0221 29.0267 53.7288 28.76 55.4888 28.76C58.2088 28.76 60.5288 29.48 62.4488 30.92C64.3688 32.36 65.4088 34.4667 65.5688 37.24C66.8488 40.3333 67.4888 43.7733 67.4888 47.56C67.4888 50.92 66.9021 54.0667 65.7288 57C64.6088 59.9333 62.8754 62.3067 60.5288 64.12ZM57.4888 53.32C58.8221 53 59.4888 50.5733 59.4888 46.04C59.4888 44.6 59.4621 43.7467 59.4088 43.48C58.2888 44.3867 57.4888 45.3733 57.0088 46.44C55.8888 48.68 55.3288 50.44 55.3288 51.72C55.3288 52.84 55.8088 53.4 56.7688 53.4C57.0888 53.4 57.3288 53.3733 57.4888 53.32ZM91.2319 64.12C88.7785 66.04 86.1652 67 83.3919 67C80.6185 67 78.0852 66.0933 75.7919 64.28C73.5519 62.4133 71.9519 59.9333 70.9919 56.84C70.2452 54.28 69.8719 51.6133 69.8719 48.84C69.8719 45.48 70.4319 42.3067 71.5519 39.32C72.7252 36.3333 74.4852 33.8533 76.8319 31.88C78.0052 30.8667 79.4185 30.0933 81.0719 29.56C82.7252 29.0267 84.4319 28.76 86.1919 28.76C88.9119 28.76 91.2319 29.48 93.1519 30.92C95.0719 32.36 96.1119 34.4667 96.2719 37.24C97.5519 40.3333 98.1919 43.7733 98.1919 47.56C98.1919 50.92 97.6052 54.0667 96.4319 57C95.3119 59.9333 93.5785 62.3067 91.2319 64.12ZM88.1919 53.32C89.5252 53 90.1919 50.5733 90.1919 46.04C90.1919 44.6 90.1652 43.7467 90.1119 43.48C88.9919 44.3867 88.1919 45.3733 87.7119 46.44C86.5919 48.68 86.0319 50.44 86.0319 51.72C86.0319 52.84 86.5119 53.4 87.4719 53.4C87.7919 53.4 88.0319 53.3733 88.1919 53.32ZM108.175 68.76C107.055 69.2933 106.068 69.56 105.215 69.56C104.148 69.56 103.322 69.1867 102.735 68.44C102.202 67.6933 101.855 66.9467 101.695 66.2C101.535 65.4533 101.348 64.3067 101.135 62.76C100.762 59.4533 100.575 55.9333 100.575 52.2C100.575 46.1733 101.162 38.5733 102.335 29.4L102.815 25.4C103.082 22.68 103.375 20.36 103.695 18.44C104.068 16.52 104.602 14.7867 105.295 13.24C105.722 12.28 106.415 11.5067 107.375 10.92C108.335 10.3333 109.322 10.04 110.335 10.04C111.242 10.04 112.068 10.3067 112.815 10.84C113.562 11.32 114.068 12.0667 114.335 13.08C114.708 14.4133 114.895 15.9333 114.895 17.64C114.895 19.0267 114.735 21 114.415 23.56C114.362 23.9867 114.282 24.7333 114.175 25.8C114.068 26.8133 114.015 27.72 114.015 28.52C113.962 31.56 113.668 36.12 113.135 42.2L112.735 46.76C116.575 43.24 119.748 41.48 122.255 41.48C123.375 41.48 124.308 41.8533 125.055 42.6C125.802 43.3467 126.175 44.2 126.175 45.16C126.175 46.6533 125.348 48.1467 123.695 49.64C122.095 51.1333 120.442 52.36 118.735 53.32C119.002 53.64 119.775 54.52 121.055 55.96C122.388 57.3467 123.562 58.84 124.575 60.44C125.642 61.9867 126.175 63.32 126.175 64.44C126.175 65.72 125.482 66.5733 124.095 67C123.668 67.1067 123.348 67.16 123.135 67.16C121.908 67.16 120.575 66.4933 119.135 65.16C117.748 63.8267 116.468 62.28 115.295 60.52C114.122 58.76 113.268 57.2933 112.735 56.12C112.575 56.1733 112.388 56.76 112.175 57.88C111.962 58.9467 111.775 60.04 111.615 61.16C111.562 61.5867 111.508 61.9867 111.455 62.36C111.402 62.7333 111.348 63.0267 111.295 63.24C110.922 64.52 110.495 65.64 110.015 66.6C109.588 67.5067 108.975 68.2267 108.175 68.76ZM169.264 70.76C167.877 69.48 166.784 67.6933 165.984 65.4C165.237 63.0533 164.464 59.9867 163.664 56.2C163.344 54.6 163.024 53.2667 162.704 52.2C162.757 52.5733 161.584 53.5867 159.184 55.24C156.784 56.8933 155.344 57.8267 154.864 58.04C153.957 58.3067 153.264 58.44 152.784 58.44C151.717 58.44 150.837 58.0933 150.144 57.4C149.45 56.7067 148.917 55.96 148.544 55.16C148.224 54.36 147.744 53.08 147.104 51.32C146.304 49.0267 145.21 47.88 143.824 47.88C142.917 47.88 141.717 48.4933 140.224 49.72C138.997 50.7867 138.197 52.12 137.824 53.72C137.45 55.2667 137.21 57.32 137.104 59.88C136.997 61.96 136.864 63.48 136.704 64.44C136.277 67 135.37 68.28 133.984 68.28C133.237 68.28 132.464 67.8533 131.664 67C130.864 66.0933 130.25 64.9467 129.824 63.56C128.97 60.52 128.544 56.8667 128.544 52.6C128.544 50.2 128.624 47.9333 128.784 45.8L128.864 44.12C128.97 41.0267 129.237 38.4133 129.664 36.28C130.09 34.1467 130.944 32.4933 132.224 31.32C133.184 30.4133 134.117 29.96 135.024 29.96C136.037 29.96 136.864 30.4933 137.504 31.56C138.197 32.6267 138.677 33.9067 138.944 35.4C139.264 36.84 139.37 38.0933 139.264 39.16C140.117 38.0933 141.13 37.2667 142.304 36.68C143.477 36.0933 144.704 35.8 145.984 35.8C147.157 35.8 148.277 36.0667 149.344 36.6C151.157 37.4533 152.57 39.0533 153.584 41.4C153.797 41.8267 154.01 42.52 154.224 43.48C154.544 44.92 154.917 45.88 155.344 46.36C156.997 45.2933 158.384 44.4933 159.504 43.96C160.677 43.3733 161.85 43.08 163.024 43.08C164.784 43.08 166.41 43.8533 167.904 45.4C170.677 48.3333 172.704 53.5067 173.984 60.92C174.197 61.9867 174.304 63.5067 174.304 65.48C174.304 69.96 173.477 72.2 171.824 72.2C171.184 72.2 170.33 71.72 169.264 70.76ZM201.709 67C200.429 67 199.469 66.4133 198.829 65.24C198.242 64.0133 197.869 62.7867 197.709 61.56C197.602 60.3333 197.522 58.7333 197.469 56.76C196.135 58.5733 194.429 60.0667 192.349 61.24C190.322 62.36 188.269 62.92 186.189 62.92C184.535 62.92 183.015 62.52 181.629 61.72C180.295 60.8667 179.202 59.5867 178.349 57.88C177.229 55.5333 176.669 52.9733 176.669 50.2C176.669 47.96 176.989 45.72 177.629 43.48C178.322 41.1867 179.255 39.1067 180.429 37.24C181.815 35 183.629 33.1333 185.869 31.64C188.109 30.1467 190.322 29.4 192.509 29.4C195.442 29.4 197.922 30.84 199.949 33.72C201.442 35.9067 202.455 37.5867 202.989 38.76C203.522 39.88 203.815 41.48 203.869 43.56L204.349 58.6C204.349 58.9733 204.375 59.4267 204.429 59.96C204.482 60.44 204.509 61.0267 204.509 61.72C204.509 65.24 203.575 67 201.709 67ZM190.829 48.84C191.682 48.8933 192.615 48.2533 193.629 46.92C194.642 45.5333 195.362 44.3333 195.789 43.32C196.109 42.68 196.269 42.04 196.269 41.4C196.269 40.76 196.109 40.28 195.789 39.96C195.522 39.5867 195.122 39.4 194.589 39.4C194.269 39.4 193.895 39.48 193.469 39.64C192.722 39.9067 191.922 40.6 191.069 41.72C190.269 42.84 189.682 43.9067 189.309 44.92C189.042 45.6133 188.909 46.28 188.909 46.92C188.909 48.1467 189.549 48.7867 190.829 48.84ZM221.278 72.68C220.478 73.32 219.758 73.64 219.118 73.64C217.785 73.64 216.798 72.76 216.158 71C215.518 69.24 214.985 67.1333 214.558 64.68C213.438 57.9067 212.691 50.12 212.318 41.32C212.265 40.2 212.291 38.3867 212.398 35.88L212.478 32.44C212.478 29.72 212.078 28.0933 211.278 27.56L207.838 27C205.545 26.68 203.945 26.3067 203.038 25.88C202.131 25.4533 201.411 24.92 200.878 24.28C200.345 23.5867 200.078 22.84 200.078 22.04C200.078 21.1333 200.451 20.2267 201.198 19.32C201.945 18.4667 202.931 17.88 204.158 17.56C205.385 17.1867 206.878 16.92 208.638 16.76L213.198 15.32C213.518 14.84 213.731 13.6933 213.838 11.88L213.998 10.28C214.425 8.14666 214.878 6.41333 215.358 5.08C215.838 3.69333 216.611 2.54667 217.678 1.64C218.425 0.893331 219.145 0.519998 219.838 0.519998C220.958 0.519998 221.865 1.42666 222.558 3.24C223.305 5 224.025 7.37333 224.718 10.36C225.091 12.0133 225.385 13.1333 225.598 13.72C225.705 14.04 225.811 14.3867 225.918 14.76C226.078 15.1333 226.345 15.3467 226.718 15.4C227.091 15.4533 227.625 15.5067 228.318 15.56C230.825 15.72 232.425 15.8533 233.118 15.96C233.811 16.0667 234.771 16.36 235.998 16.84C237.545 17.4267 238.878 18.1733 239.998 19.08C241.171 19.9867 241.758 21.1067 241.758 22.44C241.758 23.7733 241.011 24.8133 239.518 25.56C238.078 26.3067 236.451 26.8667 234.638 27.24L228.078 28.04C227.758 28.1467 227.411 28.2 227.038 28.2H226.798C226.745 28.2 226.691 28.28 226.638 28.44C226.638 28.5467 226.558 28.76 226.398 29.08V31.88C226.398 42.6533 225.945 52.1467 225.038 60.36L224.798 62.12C224.531 64.7333 224.158 66.92 223.678 68.68C223.198 70.44 222.398 71.7733 221.278 72.68ZM246.892 63.4C243.692 62.8133 241.292 61.32 239.692 58.92C238.145 56.4667 237.372 53.56 237.372 50.2C237.372 47.48 237.852 44.8133 238.812 42.2C239.772 39.5333 241.052 37.3467 242.652 35.64C244.039 34.1467 245.719 32.9733 247.692 32.12C249.665 31.2133 251.692 30.76 253.772 30.76C254.945 30.76 256.092 30.92 257.212 31.24C259.132 31.8267 260.785 32.9733 262.172 34.68C263.612 36.3333 264.332 38.12 264.332 40.04C264.332 41.6933 263.745 43.1867 262.572 44.52C261.665 45.5333 260.519 46.3067 259.132 46.84C257.799 47.3733 256.225 47.8267 254.412 48.2L252.492 48.44C250.839 48.5467 249.612 48.84 248.812 49.32C248.012 49.8 247.612 50.8667 247.612 52.52C247.612 54.0667 248.119 54.84 249.132 54.84C250.305 54.84 252.465 53.5867 255.612 51.08C255.879 50.8667 256.225 50.6 256.652 50.28C257.079 49.96 257.372 49.7733 257.532 49.72C258.332 49.3467 259.052 49.16 259.692 49.16C260.599 49.16 261.265 49.5067 261.692 50.2C262.172 50.8933 262.412 51.8 262.412 52.92C262.412 54.1467 262.199 55.3733 261.772 56.6C261.345 57.8267 260.785 58.7867 260.092 59.48C258.759 60.8133 257.159 61.8533 255.292 62.6C253.425 63.2933 251.505 63.64 249.532 63.64C248.625 63.64 247.745 63.56 246.892 63.4ZM252.172 43.16C252.492 43.2667 252.785 43.32 253.052 43.32C254.065 43.32 255.025 43.0533 255.932 42.52C256.892 41.9867 257.212 41.3733 256.892 40.68C256.732 40.6267 256.465 40.6 256.092 40.6C255.239 40.6 254.465 40.8133 253.772 41.24C253.079 41.6667 252.545 42.3067 252.172 43.16Z" fill="#E36824"/>
</svg>
